# xmcd CD database file
#
# Track frame offsets:
#	150
#	15081
#	29333
#	42191
#	54651
#	67660
#	87663
#	98561
#	111969
#	131347
#	151263
#	165505
#	177612
#	189903
#	205358
#	222152
#	236363
#	249833
#
# Disc length: 3535 seconds
#
# Revision: 0
# Processed by: cddbd v1.5.1PL0 Copyright (c) Steve Scherf et al.
# Submitted via: CDex 1.50beta9
#
DISCID=df0dcd12
DTITLE=Wild Bill Davidson - The Discovery Of Jazz, Pt. 2
DYEAR=1900
DGENRE=Jazz
TTITLE0=Skeleton Jangle
TTITLE1=Can´t We Be Friends?
TTITLE2=Tishomingo Blues
TTITLE3=Dardanella
TTITLE4=Riverboat Shuffle
TTITLE5=It´s Right Here For You
TTITLE6=Eccentric
TTITLE7=Clarinet Marmelade
TTITLE8=That´s A Plenty
TTITLE9=Panama
TTITLE10=Shim Me Sha Wabble
TTITLE11=I Don´t Stand A Ghost Of A Chance
TTITLE12=Little Girl
TTITLE13=Jazz Me Blues
TTITLE14=Lonesome Road
TTITLE15=Hotter Than That
TTITLE16=Swinging Down The Lane
TTITLE17=Sensation
EXTD=
EXTT0=
EXTT1=
EXTT2=
EXTT3=
EXTT4=
EXTT5=
EXTT6=
EXTT7=
EXTT8=
EXTT9=
EXTT10=
EXTT11=
EXTT12=
EXTT13=
EXTT14=
EXTT15=
EXTT16=
EXTT17=
PLAYORDER=
